<svg width="200" height="60" viewBox="0 0 200 60" fill="none" xmlns="http://www.w3.org/2000/svg">
<rect width="200" height="60" fill="white"/>
<path d="M78.6391 28.7136C81.3114 27.5339 82.302 25.9401 82.302 23.9698C82.302 20.5311 79.5491 19 75.0338 19H66.9592C67.466 19.8408 67.9498 20.7444 67.9498 22.0998V28.927C65.577 29.4415 63.446 29.8808 61.4418 30.4079C59.6449 25.0114 57.6406 19 57.6406 19H52.6185C52.6991 19.753 52.63 20.5562 52.2614 21.648L46.6403 38.7159C46.6403 38.7159 46.2717 39.9207 45.5 41H49.6121C49.5315 40.4102 49.6352 39.6321 49.7734 39.1552C50.1881 37.8123 51.3054 36.9213 52.4918 36.344C54.0353 35.5784 56.7191 34.6623 57.9862 34.2481L59.3224 38.4147C59.3224 38.4147 59.8637 39.9835 59.5758 41H65.3811C64.5057 39.7074 64.2062 38.741 64.2062 38.7159C64.068 38.3143 63.3078 36.0051 62.3287 33.0936C64.1026 32.6292 65.9571 32.2402 67.9498 31.8135V37.8751C67.9498 39.0422 67.5121 40.0713 66.9592 40.9874H74.6306C75.8861 40.9874 77.0034 40.9122 77.8443 40.749C81.1386 40.1215 83.4999 38.2892 83.4999 34.3862C83.5115 31.3993 81.6685 29.6172 78.6391 28.7136ZM52.6991 33.2567C52.2154 33.5077 51.5934 33.9218 51.2363 34.3109C52.3421 30.7969 53.8625 25.9652 54.5997 23.6811L57.1338 31.5625C55.8552 31.9641 53.8856 32.6418 52.6991 33.2567ZM72.4305 21.7484C73.2253 21.6982 73.5133 21.6982 74.0316 21.6982C76.5081 21.6982 77.66 22.8277 77.66 24.4216C77.66 25.9401 76.7385 26.8813 75.2065 27.3833C74.5615 27.5967 73.4903 27.8351 72.4305 28.0359V21.7484ZM74.2966 38.2641H72.4421V30.935C73.1332 30.7593 74.239 30.5459 74.9646 30.4581C77.1993 31.0228 78.8464 32.0268 78.8464 34.5117C78.8349 37.4107 76.8883 38.2641 74.2966 38.2641Z" fill="#431512"/>
<path d="M83.5 41.1128C84.4689 39.4478 84.4689 37.9377 84.4689 37.9119V21.7009C84.4689 21.6751 84.4689 20.1779 83.5 18.5H89.8429C88.874 20.1779 88.874 21.6751 88.874 21.7009V37.9119C88.874 37.9377 88.874 39.4478 89.8429 41.1128H83.5ZM154.5 25.1857H150.253C150.613 25.8569 150.467 26.9282 150.095 28.0123L147.346 36.4147L144.496 28.0123C144.113 26.9282 143.977 25.8569 144.338 25.1857H138.851C139.606 26.1021 140.079 27.2767 140.35 28.0123L145.07 41.1128H148.743C148.743 41.1128 148.833 40.0415 149.25 38.8412L153.047 28.0123C153.306 27.2637 153.847 25.9731 154.5 25.1857ZM139.414 33.6139C139.685 30.2839 138.885 24.4888 132.463 24.4888C127.224 24.4888 125.298 28.6706 125.298 32.7492C125.298 37.9377 127.765 41.5 133.669 41.5C136.068 41.5 138.006 40.6869 139.155 39.8866L137.972 36.8923C136.857 37.5376 135.494 38.1055 133.973 38.1055C131.337 38.1055 129.714 37.0471 129.365 34.0527H135.066C137.161 34.0657 138.862 33.9237 139.414 33.6139ZM129.376 31.3165C129.635 28.748 130.638 27.4444 132.463 27.4444C134.356 27.4444 135.291 29.1223 135.37 31.2907C135.37 31.2907 134.536 31.3165 133.455 31.3165H129.376ZM100.692 41.1128H106.314C105.458 39.6414 105.458 38.2991 105.458 38.2862V29.7806C105.458 26.7346 104.027 24.8631 101.008 24.8631C99.0812 24.8631 97.4927 25.8569 96.321 27.0701V25.1857H91.5441C92.4003 26.67 92.4003 27.9994 92.4003 28.0123V38.2733C92.4003 38.2991 92.4003 39.6285 91.5441 41.0999H97.1772C96.321 39.6285 96.321 38.2862 96.321 38.2733V29.7806C97.0421 28.9287 98.0673 28.3092 99.1939 28.3092C100.918 28.3092 101.549 29.4063 101.549 31.11V38.2733C101.549 38.2991 101.549 39.6285 100.692 41.1128ZM115.26 30.4388C118.031 30.4388 119.552 31.9877 119.552 34.4916C119.552 36.7374 118.38 38.3765 115.192 38.3765H113.288V30.4388H115.26ZM114.843 21.2363C117.265 21.2363 118.392 22.3204 118.392 24.3597C118.392 26.3861 117.378 27.5993 115.046 27.5993C114.595 27.5993 113.772 27.6122 113.288 27.5993V21.2363H114.843ZM115.35 41.1128C116.578 41.1128 117.716 41.0354 118.538 40.8676C121.704 40.2351 124.047 38.3765 124.047 34.3754C124.047 31.1616 122.256 29.4966 119.439 28.5673C121.963 27.4703 122.808 25.8956 122.808 23.8434C122.808 20.307 120.296 18.5 115.767 18.5H108.196C108.725 19.4164 108.905 20.7458 108.905 21.7009V37.9119C108.905 38.9703 108.736 40.0802 108.196 41.1128H115.35Z" fill="#431512"/>
</svg>
