<svg width="200" height="60" viewBox="0 0 200 60" fill="none" xmlns="http://www.w3.org/2000/svg">
<rect width="200" height="60" fill="white"/>
<path d="M122.93 17.9156V22.8891H128.571V42.1599H134.696V22.8891H142.889L145.59 17.9156H122.93ZM117.175 24.8145L121.616 22.1577C121.616 22.1577 118.731 17.5 111.398 17.5C103.898 17.5 100.986 21.253 100.986 24.1964C100.986 26.8452 102.601 29.2559 108.32 31.369C114.038 33.4821 115.687 33.8044 115.687 35.2976C115.687 36.875 113.324 37.5559 111.575 37.5559C109.373 37.5559 106.654 37.0238 103.761 34.0476L99.3379 37.1875C99.3379 37.1875 102.559 42.5 111.541 42.5C119.581 42.5 122.298 38.3282 122.298 35.2032C122.298 32.0782 119.387 30.2381 117.234 29.2262C115.081 28.2143 112.083 27.4738 109.699 26.4509C105.727 24.7463 107.63 22.0736 111.317 22.0736C115.004 22.0736 117.175 24.8145 117.175 24.8145ZM151.947 34.0211L148.809 39.8729L150.051 42.1599H156.368L151.947 34.0211ZM136.829 42.1599H143.893L151.915 27.1359L159.936 42.1599H167L153.833 17.9156H149.997L136.829 42.1599ZM91.1971 17.9157H97.3229V42.1599H91.1971V17.9157ZM74.3101 33.5713L82.059 42.1599H89.8611L81.4395 32.6483C84.5659 31.3319 86.8238 28.7399 86.8238 25.7436C86.8238 21.407 82.3974 17.9159 77.1497 17.9159H64.5211V42.1599H70.9796V23.0364H76.7567C79.2568 23.0364 80.8281 24.0463 80.8281 26.056C80.8281 28.8692 76.3177 29.0759 74.3101 29.0759V33.5713ZM48.1183 34.0211L44.9796 39.8729L46.2217 42.1599H52.5386L48.1183 34.0211ZM33 42.1599H40.0643L48.0856 27.1359L56.1066 42.1599H63.1709L50.0034 17.9156H46.1674L33 42.1599Z" fill="#7AADD4"/>
<rect width="200" height="60" stroke="#D9D9D9"/>
</svg>
