<svg width="200" height="60" viewBox="0 0 200 60" fill="none" xmlns="http://www.w3.org/2000/svg">
<rect width="200" height="60" fill="white"/>
<path d="M56.6412 32.7817C55.0382 38.9435 48.5263 42.6917 42.0958 41.1558C35.6686 39.6198 31.7558 33.3797 33.3595 27.2193C34.9617 21.0575 41.4732 17.3082 47.9015 18.8442C54.3313 20.3801 58.2438 26.621 56.6408 32.7817H56.6412Z" fill="#54878B"/>
<path d="M69.9001 24.0738C71.0846 24.0738 72.1079 24.2919 72.9674 24.7199C73.8319 25.1522 74.5449 25.7345 75.1168 26.4669C75.681 27.203 76.1009 28.0634 76.3721 29.0494C76.6414 30.0387 76.7765 31.1011 76.7765 32.2386C76.7765 33.9874 76.4647 35.6378 75.8353 37.1944C75.2054 38.7534 74.3518 40.106 73.2655 41.2594C72.1801 42.4114 70.8983 43.3191 69.4204 43.9901C67.9447 44.6615 66.3403 44.9972 64.6176 44.9972C64.3949 44.9972 64.0033 44.9906 63.45 44.9789C62.8968 44.9672 62.261 44.9086 61.5489 44.8101C60.7836 44.6978 60.0244 44.5448 59.2745 44.3516C58.4897 44.1569 57.7272 43.8772 57 43.517L63.3957 15.9115L69.1241 15L66.8341 24.7959C67.3104 24.5748 67.8046 24.3972 68.3112 24.2651C68.8312 24.1353 69.3646 24.0711 69.8996 24.0738H69.9001ZM65.0951 40.3292C65.9578 40.3292 66.7702 40.1112 67.5343 39.6836C68.3024 39.2523 68.9764 38.6642 69.5149 37.9554C70.0776 37.2163 70.5204 36.3888 70.8262 35.5046C71.1469 34.5908 71.3097 33.6264 71.3073 32.6549C71.3073 31.4396 71.1097 30.4935 70.7158 29.8075C70.3219 29.1253 69.5929 28.7821 68.534 28.7821C68.1871 28.7821 67.7407 28.8501 67.1865 28.9716C66.6306 29.1005 66.133 29.3682 65.6871 29.771L63.2483 40.174C63.3953 40.2007 63.5254 40.2261 63.6363 40.25C63.7449 40.2758 63.8645 40.2941 63.9845 40.3067C64.111 40.3212 64.2557 40.3287 64.4305 40.3287L65.0946 40.3292H65.0951ZM82.7171 44.4692H77.2457L81.8663 24.4972H87.3752L82.7171 44.4692ZM85.3796 22.0638C84.6331 22.0702 83.9054 21.8237 83.3091 21.3624C82.6897 20.8973 82.3826 20.1814 82.3826 19.2165C82.3826 18.6857 82.4875 18.1878 82.6961 17.718C82.8977 17.2629 83.1804 16.8505 83.5296 16.5022C83.8796 16.1591 84.286 15.8824 84.7301 15.685C85.1922 15.4821 85.69 15.3791 86.1925 15.3821C86.9557 15.3821 87.644 15.6156 88.2611 16.0835C88.8755 16.5538 89.1845 17.2698 89.1845 18.2295C89.1875 18.7476 89.08 19.26 88.8696 19.7308C88.6699 20.1863 88.3881 20.5989 88.0388 20.9465C87.6897 21.2901 87.283 21.5662 86.8384 21.7614C86.381 21.9668 85.8963 22.0638 85.3796 22.0638ZM92.1701 19.5212L97.9008 18.6093L96.4936 24.4963H102.631L101.523 29.1277H95.4223L93.7974 36.1137C93.6477 36.6956 93.5628 37.2394 93.539 37.7453C93.5116 38.2531 93.5746 38.6891 93.7225 39.0563C93.8695 39.4243 94.1333 39.708 94.5167 39.9082C94.8988 40.1121 95.4451 40.2148 96.1618 40.2148C96.7519 40.2148 97.3275 40.1571 97.8826 40.0427C98.4528 39.9266 99.0142 39.7684 99.5623 39.5692L99.9713 43.8991C99.1861 44.1912 98.3835 44.4316 97.5685 44.6188C96.7045 44.8232 95.6816 44.9212 94.4994 44.9212C92.7996 44.9212 91.4818 44.662 90.5429 44.1462C89.6054 43.6267 88.9426 42.9159 88.5459 42.0166C88.1548 41.1211 87.98 40.0882 88.0288 38.924C88.079 37.7575 88.2506 36.531 88.5459 35.2402L92.1701 19.5212ZM102.39 36.4944C102.39 34.7737 102.662 33.1519 103.203 31.6328C103.744 30.1128 104.523 28.7835 105.534 27.6433C106.541 26.5086 107.768 25.6089 109.213 24.9487C110.65 24.2923 112.261 23.9613 114.034 23.9613C115.145 23.9613 116.137 24.0692 117.01 24.2853C117.887 24.5033 118.679 24.7851 119.396 25.1386L117.51 29.5459C117.007 29.3383 116.495 29.1546 115.976 28.9955C115.446 28.8281 114.8 28.7474 114.036 28.7474C112.209 28.7474 110.766 29.3945 109.691 30.6829C108.62 31.9727 108.081 33.7089 108.081 35.8872C108.081 37.178 108.353 38.2212 108.897 39.0197C109.438 39.8182 110.439 40.2158 111.89 40.2158C112.607 40.2158 113.299 40.1389 113.961 39.9888C114.628 39.8369 115.218 39.6456 115.736 39.4196L116.145 43.9376C115.397 44.2325 114.632 44.4805 113.854 44.6802C113.014 44.8912 112.016 45 110.858 45C109.329 45 108.035 44.7707 106.977 44.3178C105.918 43.8588 105.043 43.2488 104.353 42.4761C103.66 41.7016 103.163 40.7967 102.856 39.7591C102.548 38.7215 102.39 37.6305 102.39 36.4944H102.39ZM126.696 44.9986C125.39 44.9986 124.256 44.7942 123.293 44.3895C122.334 43.9854 121.54 43.4171 120.911 42.681C120.281 41.9487 119.81 41.0808 119.488 40.0807C119.165 39.0811 119.01 37.9741 119.01 36.7612C119.01 35.2402 119.247 33.7192 119.728 32.2015C120.207 30.6824 120.917 29.3162 121.855 28.1023C122.788 26.8865 123.938 25.8926 125.291 25.1175C126.643 24.3477 128.198 23.9604 129.946 23.9604C131.228 23.9604 132.356 24.1653 133.332 24.5699C134.303 24.9736 135.103 25.5461 135.735 26.2784C136.36 27.0145 136.836 27.8786 137.154 28.8806C137.477 29.8779 137.635 30.9877 137.635 32.2015C137.635 33.7178 137.401 35.2397 136.936 36.7607C136.47 38.2751 135.778 39.6442 134.865 40.8604C133.954 42.0748 132.815 43.0678 131.446 43.8396C130.08 44.6118 128.495 44.9986 126.696 44.9986ZM129.43 28.7479C128.619 28.7479 127.902 28.9894 127.288 29.4671C126.672 29.9505 126.155 30.5586 125.738 31.291C125.316 32.0271 125.004 32.8298 124.792 33.7024C124.582 34.5768 124.48 35.4043 124.48 36.1887C124.48 37.456 124.679 38.4439 125.07 39.1538C125.466 39.8599 126.179 40.2158 127.214 40.2158C128.028 40.2158 128.742 39.9752 129.359 39.4928C129.972 39.0131 130.49 38.405 130.91 37.6703C131.329 36.9389 131.645 36.1334 131.856 35.259C132.063 34.3874 132.168 33.5561 132.168 32.7721C132.168 31.5081 131.97 30.5188 131.575 29.8094C131.181 29.1028 130.465 28.7474 129.43 28.7474V28.7479ZM143.598 44.4692H138.122L142.743 24.4972H148.254L143.598 44.4692ZM146.256 22.0638C145.511 22.0703 144.784 21.8238 144.188 21.3624C143.571 20.8973 143.262 20.1814 143.262 19.2165C143.262 18.6857 143.368 18.1878 143.577 17.718C143.777 17.2623 144.059 16.8498 144.409 16.5022C144.76 16.159 145.166 15.8823 145.611 15.685C146.071 15.4821 146.567 15.379 147.068 15.3821C147.834 15.3821 148.524 15.6156 149.14 16.0835C149.756 16.5538 150.066 17.2698 150.066 18.2295C150.066 18.7621 149.956 19.2619 149.749 19.7308C149.542 20.1997 149.264 20.6033 148.92 20.9465C148.57 21.2893 148.164 21.5653 147.72 21.7614C147.261 21.9668 146.776 22.0638 146.256 22.0638ZM152.197 25.4054C152.613 25.2807 153.077 25.1307 153.58 24.9675C154.141 24.7889 154.71 24.6381 155.284 24.5155C155.909 24.3749 156.614 24.26 157.39 24.1714C158.165 24.0809 159.049 24.0368 160.031 24.0368C162.916 24.0368 164.905 24.9 166.004 26.6212C167.101 28.3423 167.291 30.6974 166.579 33.6836L164.062 44.4674H158.554L160.994 33.9101C161.142 33.2513 161.259 32.6137 161.346 31.991C161.433 31.374 161.428 30.8296 161.326 30.3594C161.237 29.9085 160.995 29.5046 160.644 29.2186C160.283 28.9284 159.738 28.7826 158.999 28.7826C158.266 28.7856 157.536 28.8628 156.819 29.0133L153.232 44.466H147.723L152.197 25.4054Z" fill="#4D4D4D"/>
</svg>
