<svg width="56" height="56" viewBox="0 0 56 56" fill="none" xmlns="http://www.w3.org/2000/svg">
<rect width="56" height="56" rx="8" fill="#3FA0B0"/>
<path d="M17.7891 20.5H39.8046C40.2507 20.5 40.6918 20.5879 41.0996 20.7579C41.5073 20.9279 41.8726 21.1763 42.1719 21.487C42.4713 21.7978 42.698 22.164 42.8374 22.5622C42.9769 22.9603 43.026 23.3815 42.9816 23.7985L42.0237 32.7985C41.9449 33.5388 41.5762 34.2251 40.9891 34.7243C40.4021 35.2235 39.6385 35.5 38.8467 35.5H23.6003C22.8618 35.5003 22.1462 35.2601 21.575 34.8203C21.0039 34.3805 20.6127 33.7683 20.468 33.088L17.7891 20.5Z" stroke="white" stroke-width="2" stroke-linejoin="round"/>
<path d="M17.7895 20.5L16.4963 15.6355C16.4098 15.3111 16.2105 15.0232 15.9299 14.8175C15.6493 14.6118 15.3036 14.5 14.9477 14.5H13M22.5789 41.5H25.7719M35.3508 41.5H38.5438" stroke="white" stroke-width="2" stroke-linecap="round" stroke-linejoin="round"/>
</svg>
