<svg width="24" height="24" viewBox="0 0 24 24" fill="none" xmlns="http://www.w3.org/2000/svg">
<path d="M12 22C6.47768 22 2 17.5223 2 12C2 6.47768 6.47768 2 12 2C17.5223 2 22 6.47768 22 12C22 17.5223 17.5223 22 12 22ZM12 3.69643C7.41518 3.69643 3.69643 7.41518 3.69643 12C3.69643 16.5848 7.41518 20.3036 12 20.3036C16.5848 20.3036 20.3036 16.5848 20.3036 12C20.3036 7.41518 16.5848 3.69643 12 3.69643ZM12.125 15.5871C13.308 15.5871 14.1116 14.8326 14.2009 13.7254C14.2076 13.6317 14.2857 13.5603 14.3795 13.5603H15.6451C15.7031 13.5603 15.75 13.6071 15.75 13.6652C15.75 15.6004 14.2232 16.9554 12.1183 16.9554C9.66518 16.9554 8.25 15.2991 8.25 12.5625V11.3951C8.25 8.67857 9.66518 7.04464 12.1183 7.04464C14.2165 7.04464 15.75 8.35714 15.75 10.2009C15.75 10.2589 15.7031 10.3058 15.6451 10.3058H14.3772C14.2835 10.3058 14.2076 10.2344 14.1987 10.1429C14.1049 9.11384 13.3036 8.40625 12.1228 8.40625C10.6652 8.40625 9.84375 9.47545 9.84375 11.3884V12.5625C9.84598 14.5045 10.6696 15.5871 12.125 15.5871Z" fill="black"/>
</svg>
