<svg width="38" height="38" viewBox="0 0 38 38" fill="none" xmlns="http://www.w3.org/2000/svg">
<rect width="38" height="38" rx="19" fill="#455E89"/>
<path fill-rule="evenodd" clip-rule="evenodd" d="M9 19.0558C9 24.0275 12.6108 28.1617 17.3333 29V21.7775H14.8333V19H17.3333V16.7775C17.3333 14.2775 18.9442 12.8892 21.2225 12.8892C21.9442 12.8892 22.7225 13 23.4442 13.1108V15.6667H22.1667C20.9442 15.6667 20.6667 16.2775 20.6667 17.0558V19H23.3333L22.8892 21.7775H20.6667V29C25.3892 28.1617 29 24.0283 29 19.0558C29 13.525 24.5 9 19 9C13.5 9 9 13.525 9 19.0558Z" fill="white"/>
</svg>
