<svg width="200" height="60" viewBox="0 0 200 60" fill="none" xmlns="http://www.w3.org/2000/svg">
<rect width="200" height="60" fill="white"/>
<path fill-rule="evenodd" clip-rule="evenodd" d="M32.6278 22.418H28.7286V30.6426H35.8764V33.844H28.7286V44.4512H24.8044V26.187C24.8044 26.187 24.8303 21.211 23.4559 19.2704L37.7017 19.3018L38.576 25.3042C37.0261 22.418 32.6278 22.418 32.6278 22.418ZM23.4551 26.122C23.4551 21.8134 22.5041 20.3831 21.6797 19.3018H22.3045C23.0798 20.4157 23.9042 22.0994 23.9042 26.122V44.5151H23.4551V26.122ZM53.3627 44.422L51.3128 37.1576H43.2336L41.1347 44.4512H38.3852L43.534 26.1242C43.534 26.1242 44.9903 21.1874 44.1641 19.2693H49.9643C50.2388 19.2693 50.4893 19.6809 50.5891 20.0578L57.4366 44.4209H53.3627V44.422ZM44.1383 33.9517H50.4394L47.3637 22.9811H47.2639L44.1383 33.9517ZM42.9342 20.0264C42.8834 19.774 42.8085 19.5856 42.559 19.2704H43.059C43.2336 19.3983 43.3834 19.8705 43.3834 19.8705C43.5331 20.6254 43.6347 22.3552 42.6837 25.7181L37.4102 44.5163H36.9352C38.2097 40.0203 42.2586 25.5274 42.2586 25.5274C43.1828 22.3226 43.0839 20.686 42.9342 20.0264ZM74.3632 44.4613L61.4409 44.4299V26.159C61.4409 26.159 61.4409 21.1583 60.0916 19.2704H65.3651V41.4404H69.2884C69.2884 41.4404 73.6626 41.4405 75.2116 38.5497L74.3632 44.4613ZM60.0916 26.0962C60.0916 21.7864 59.1415 20.373 58.3171 19.3029H58.9419C59.7164 20.4056 60.5408 22.1028 60.5408 26.0962V44.5544H60.0916V26.0962ZM81.617 19.3545C80.5698 19.921 79.6732 20.6456 78.9495 21.5576C77.1554 23.8213 76.2303 27.3088 76.2303 31.8664C76.2303 36.4566 77.1554 39.9418 78.9745 42.238C79.7222 43.1836 80.6447 43.9386 81.7168 44.4714H80.6447C79.9093 43.9836 79.2373 43.3576 78.6518 42.6149C76.757 40.2267 75.782 36.6102 75.782 31.8664C75.782 25.7047 77.3809 21.5251 80.5208 19.3545H81.617ZM81.691 31.8664C81.691 24.6704 84.8656 22.3754 87.6891 22.3754C87.6891 22.3754 92.0624 22.3754 93.6123 25.2694L92.7621 19.3556H86.8388C80.1197 19.3556 77.1287 23.6968 77.1287 31.8675C77.1287 40.0394 80.1197 44.4725 86.8388 44.4725H92.7621L93.6123 38.5609C92.0624 41.4517 87.6891 41.4517 87.6891 41.4517C84.8656 41.4517 81.691 39.0657 81.691 31.8664ZM100.649 19.359C99.9037 19.8581 99.2216 20.4936 98.6247 21.2446C96.6497 23.6956 95.6497 27.4658 95.6497 32.3947C95.6497 36.3489 96.7246 39.8644 98.6488 42.2851C99.3328 43.179 100.137 43.9137 101.024 44.4557H100.099C99.4525 43.9619 98.8566 43.3705 98.3244 42.6946C96.2994 40.1471 95.1996 36.5059 95.1996 32.3947C95.1996 26.1758 96.7745 21.7472 99.7227 19.3579H100.649V19.359ZM105.932 19.0752C99.1996 19.0752 96.5499 24.4506 96.5499 32.3959C96.5499 39.4909 100.15 44.7092 105.932 44.7092C111.714 44.7092 115.29 39.492 115.29 32.3959C115.29 24.4495 112.665 19.0752 105.932 19.0752ZM110.89 31.9853C110.89 39.0175 108.361 41.0579 105.933 41.0579C103.48 41.0579 100.951 39.0175 100.951 31.9853C100.951 25.0148 103.38 22.3765 105.933 22.3765C108.461 22.3776 110.89 25.0159 110.89 31.9853ZM133.31 19.3119H136.308V44.4613H131.11L122.888 25.3771V44.4613H119.862V26.1635C119.862 26.1635 119.886 21.2301 118.52 19.3119H124.762C125.036 19.3119 125.286 19.7213 125.385 20.0982L133.309 38.4892V19.3119H133.31ZM118.544 26.1018C118.544 21.7954 117.594 20.3787 116.771 19.3108H117.395C118.17 20.4101 118.995 22.1084 118.995 26.1018V44.5533H118.544V26.1018ZM172.116 23.3928C171.785 23.3928 171.729 22.7612 171.877 22.381C172.023 22.0108 172.292 21.7068 172.622 21.7068C172.986 21.7068 173.061 22.2609 172.891 22.6816C172.737 23.0585 172.449 23.3928 172.116 23.3928Z" fill="#E492DE"/>
<path fill-rule="evenodd" clip-rule="evenodd" d="M177.638 29.9209C177.504 27.8883 176.404 27.1121 173.291 27.13C170.612 27.1457 169.213 27.4867 167.486 29.2097C165.76 30.935 165.55 32.8094 163.317 35.395C161.116 37.9436 158.159 37.8359 155.741 36.8398C156.049 34.6558 156.528 32.3742 157.962 30.1295C159.071 28.3875 160.782 27.2972 161.393 26.9404C161.605 26.8182 161.548 26.577 161.393 26.5131C160.974 26.3358 158.199 25.7693 155.644 26.992C153.238 28.1441 151.917 30.1913 151.571 32.3921C151.143 35.1056 151.927 36.9497 153.872 38.1937C154.382 38.5191 154.811 39.1214 154.913 39.8169C155.09 41.0418 154.368 42.2141 153.193 43.0756C151.652 44.2074 149.447 44.8939 147.68 45.5815C148.01 34.9227 149.976 24.2494 152.155 20.1842C153.377 17.9093 155.963 14.4185 161.796 14.4185C168.284 14.4185 172.69 17.2643 172.808 19.4371C172.391 19.9599 171.856 20.9346 170.605 23.4081C169.354 25.8804 168.377 25.8075 167.331 26.4054C166.281 27.0033 165.961 27.5282 166.081 27.7526C166.2 27.9758 167.575 26.4772 169.712 26.4772H172.092C173.914 26.4772 174.889 25.8041 175.425 24.7542C175.961 23.7042 175.723 22.1001 174.293 20.6026C175.186 20.9773 176.675 21.9072 177.508 23.6302C178.345 25.3554 178.741 27.7302 177.638 29.9209ZM163.551 19.9217C163.359 19.8645 163.089 19.8555 162.905 19.851C162.788 19.8488 162.646 19.906 162.581 20.0384C162.324 20.5899 162.234 21.2392 162.326 21.8679C162.384 22.2819 162.672 22.8046 162.97 23.0043C163.144 23.122 163.325 23.0289 163.268 22.7889C163.182 22.4187 163.045 21.9005 163.193 21.2723C163.318 20.7518 163.541 20.4153 163.631 20.2953C163.727 20.1663 163.695 19.9621 163.551 19.9217ZM161.977 19.8869C161.361 20.2235 160.933 21.3463 161.137 22.7709C161.365 24.3773 162.588 25.3678 163.913 25.3981C165.195 25.425 166.4 24.6588 167.184 22.8753C167.412 22.3637 167.805 22.4591 167.907 22.0799C168.021 21.6615 167.448 20.984 166.127 20.5959C166.205 20.8685 166.252 21.1612 166.26 21.4686C166.286 22.246 166.066 23.0045 165.648 23.5776C165.23 24.1507 164.648 24.4915 164.031 24.5253C163.413 24.5567 162.811 24.2786 162.356 23.7521C161.901 23.2256 161.631 22.4936 161.604 21.7165C161.583 21.1074 161.779 20.2975 162.031 19.9228C162.067 19.8735 162.029 19.8567 161.977 19.8869ZM169.087 36.51C168.545 37.0473 167.874 37.4209 167.071 37.7944C167.071 37.7944 167.618 38.1399 168.325 38.6806C169.152 39.3121 169.7 39.8147 169.7 39.8147C169.7 39.8147 169.685 39.3447 169.495 38.1287C169.307 36.952 169.087 36.51 169.087 36.51ZM169.826 41.0463C169.043 41.3256 168.139 41.5264 167.273 41.605C167.273 41.605 167.795 42.0256 168.606 43.098C169.362 44.0963 169.889 45.1642 169.889 45.1642C169.889 45.1642 169.953 44.3622 169.94 42.8422C169.931 41.6824 169.826 41.0463 169.826 41.0463ZM166.36 41.7025C165.738 41.7553 165.114 41.7669 164.49 41.7373C164.49 41.7373 164.856 42.1647 165.258 42.7906C165.656 43.4087 166.025 44.1244 166.025 44.1244C166.025 44.1244 166.155 43.6611 166.29 42.7682C166.39 42.0884 166.36 41.7025 166.36 41.7025ZM166.353 38.1074C165.955 38.2633 165.566 38.417 165.044 38.5202C165.044 38.5202 165.345 38.7636 165.696 39.1405C166.045 39.5163 166.383 39.9639 166.383 39.9639C166.383 39.9639 166.426 39.6116 166.424 38.9498C166.423 38.4484 166.353 38.1074 166.353 38.1074Z" fill="#E492DE"/>
<path fill-rule="evenodd" clip-rule="evenodd" d="M168.296 33.246C168.017 33.6611 167.71 33.9987 167.281 34.2747C167.281 34.2747 167.608 34.4373 168.002 34.6819C168.402 34.932 168.875 35.3291 168.875 35.3291C168.875 35.3291 168.804 34.7727 168.63 34.1659C168.536 33.8499 168.424 33.5426 168.296 33.246ZM170.97 29.4052C169.745 29.9414 169.098 31.5758 168.636 32.6504C168.636 32.6504 170.159 32.2589 170.285 33.7665C170.363 34.7267 170.137 35.2663 169.585 35.9954C169.585 35.9954 170.458 36.5731 171.161 37.4436C171.983 38.4565 171.915 39.2249 171.699 39.7364C171.52 40.1548 171.149 40.4891 170.667 40.7157C170.667 40.7157 171.242 41.2485 171.983 42.2233C172.753 43.2318 173.704 44.9839 173.704 44.9839C173.582 43.1372 173.313 41.3107 172.9 39.5323C172.275 36.8917 171.377 35.4671 171.377 33.4076C171.377 31.7238 171.652 30.951 172.403 30.5168C173.57 29.8416 174.991 29.9795 176.285 28.2375C176.285 28.2375 175.576 27.7966 173.865 27.708C173.494 28.7557 172.869 29.9347 170.97 29.4052Z" fill="black"/>
</svg>
