<svg width="38" height="38" viewBox="0 0 38 38" fill="none" xmlns="http://www.w3.org/2000/svg">
<rect width="38" height="38" rx="19" fill="#2180AF"/>
<path fill-rule="evenodd" clip-rule="evenodd" d="M14.8773 9.06C15.9436 9.01091 16.2836 9 19 9C21.7164 9 22.0564 9.01182 23.1218 9.06C24.1873 9.10818 24.9145 9.27818 25.5509 9.52455C26.2173 9.77636 26.8218 10.17 27.3218 10.6791C27.8309 11.1782 28.2236 11.7818 28.4745 12.4491C28.7218 13.0855 28.8909 13.8127 28.94 14.8764C28.9891 15.9445 29 16.2845 29 19C29 21.7164 28.9882 22.0564 28.94 23.1227C28.8918 24.1864 28.7218 24.9136 28.4745 25.55C28.2236 26.2174 27.8303 26.822 27.3218 27.3218C26.8218 27.8309 26.2173 28.2236 25.5509 28.4745C24.9145 28.7218 24.1873 28.8909 23.1236 28.94C22.0564 28.9891 21.7164 29 19 29C16.2836 29 15.9436 28.9882 14.8773 28.94C13.8136 28.8918 13.0864 28.7218 12.45 28.4745C11.7827 28.2236 11.178 27.8302 10.6782 27.3218C10.1694 26.8224 9.77574 26.2181 9.52455 25.5509C9.27818 24.9145 9.10909 24.1873 9.06 23.1236C9.01091 22.0555 9 21.7155 9 19C9 16.2836 9.01182 15.9436 9.06 14.8782C9.10818 13.8127 9.27818 13.0855 9.52455 12.4491C9.77611 11.7819 10.1701 11.1776 10.6791 10.6782C11.1782 10.1695 11.7822 9.77586 12.4491 9.52455C13.0855 9.27818 13.8127 9.10909 14.8764 9.06H14.8773ZM23.0409 10.86C21.9864 10.8118 21.67 10.8018 19 10.8018C16.33 10.8018 16.0136 10.8118 14.9591 10.86C13.9836 10.9045 13.4545 11.0673 13.1018 11.2045C12.6355 11.3864 12.3018 11.6018 11.9518 11.9518C11.62 12.2746 11.3647 12.6675 11.2045 13.1018C11.0673 13.4545 10.9045 13.9836 10.86 14.9591C10.8118 16.0136 10.8018 16.33 10.8018 19C10.8018 21.67 10.8118 21.9864 10.86 23.0409C10.9045 24.0164 11.0673 24.5455 11.2045 24.8982C11.3645 25.3318 11.62 25.7255 11.9518 26.0482C12.2745 26.38 12.6682 26.6355 13.1018 26.7955C13.4545 26.9327 13.9836 27.0955 14.9591 27.14C16.0136 27.1882 16.3291 27.1982 19 27.1982C21.6709 27.1982 21.9864 27.1882 23.0409 27.14C24.0164 27.0955 24.5455 26.9327 24.8982 26.7955C25.3645 26.6136 25.6982 26.3982 26.0482 26.0482C26.38 25.7255 26.6355 25.3318 26.7955 24.8982C26.9327 24.5455 27.0955 24.0164 27.14 23.0409C27.1882 21.9864 27.1982 21.67 27.1982 19C27.1982 16.33 27.1882 16.0136 27.14 14.9591C27.0955 13.9836 26.9327 13.4545 26.7955 13.1018C26.6136 12.6355 26.3982 12.3018 26.0482 11.9518C25.7254 11.6201 25.3325 11.3647 24.8982 11.2045C24.5455 11.0673 24.0164 10.9045 23.0409 10.86ZM17.7227 22.0827C18.4361 22.3797 19.2303 22.4197 19.9699 22.1961C20.7095 21.9725 21.3485 21.499 21.7778 20.8566C22.2071 20.2142 22.4001 19.4426 22.3237 18.6737C22.2473 17.9049 21.9064 17.1863 21.3591 16.6409C21.0102 16.2923 20.5884 16.0253 20.1239 15.8592C19.6595 15.6932 19.164 15.6321 18.6732 15.6806C18.1823 15.729 17.7083 15.8856 17.2853 16.1392C16.8622 16.3928 16.5007 16.737 16.2266 17.1471C15.9526 17.5572 15.7729 18.023 15.7005 18.5109C15.628 18.9988 15.6647 19.4966 15.8078 19.9687C15.9508 20.4407 16.1968 20.8751 16.5279 21.2407C16.8591 21.6062 17.2671 21.8938 17.7227 22.0827ZM15.3655 15.3655C15.8428 14.8882 16.4094 14.5095 17.033 14.2512C17.6566 13.9929 18.325 13.86 19 13.86C19.675 13.86 20.3434 13.9929 20.967 14.2512C21.5906 14.5095 22.1573 14.8882 22.6345 15.3655C23.1118 15.8428 23.4905 16.4094 23.7488 17.033C24.0071 17.6566 24.14 18.325 24.14 19C24.14 19.675 24.0071 20.3434 23.7488 20.967C23.4905 21.5906 23.1118 22.1573 22.6345 22.6345C21.6706 23.5985 20.3632 24.14 19 24.14C17.6368 24.14 16.3294 23.5985 15.3655 22.6345C14.4015 21.6706 13.86 20.3632 13.86 19C13.86 17.6368 14.4015 16.3294 15.3655 15.3655ZM25.28 14.6255C25.3983 14.5139 25.493 14.3797 25.5585 14.2309C25.624 14.0821 25.6589 13.9216 25.6613 13.759C25.6637 13.5964 25.6334 13.435 25.5723 13.2844C25.5111 13.1337 25.4204 12.9968 25.3054 12.8819C25.1904 12.7669 25.0536 12.6761 24.9029 12.615C24.7522 12.5539 24.5908 12.5236 24.4282 12.526C24.2657 12.5284 24.1052 12.5633 23.9564 12.6288C23.8076 12.6943 23.6734 12.789 23.5618 12.9073C23.3448 13.1373 23.226 13.4428 23.2306 13.759C23.2352 14.0752 23.3629 14.3772 23.5865 14.6008C23.8101 14.8244 24.1121 14.952 24.4282 14.9566C24.7444 14.9612 25.05 14.8424 25.28 14.6255Z" fill="white"/>
</svg>
