<svg width="200" height="60" viewBox="0 0 200 60" fill="none" xmlns="http://www.w3.org/2000/svg">
<rect width="200" height="60" fill="white"/>
<path d="M98.875 37.0713H99.5953L103.306 40.7967V37.0713H103.943V41.5894H103.339L99.5117 37.754V41.5894H98.875V37.0713V37.0713Z" fill="#61849C"/>
<path d="M105.523 37.0713H109.627V37.5289H106.185V39.022H109.543V39.4737H106.185V41.1503H109.661V41.5894H105.523V37.0713Z" fill="#61849C"/>
<path d="M112.961 37.5281H110.633V37.0705H115.952V37.5281H113.623V41.5894H112.961V37.5281Z" fill="#61849C"/>
<path d="M116.742 37.0711H117.421L119.053 40.8084L120.72 37.0711H121.29L122.948 40.8084L124.589 37.0711H125.226L123.232 41.6196H122.664L120.989 37.8578L119.321 41.6196H118.744L116.742 37.0711V37.0711Z" fill="#61849C"/>
<path d="M131.414 39.334C131.414 38.1142 130.636 37.456 128.943 37.456C127.26 37.456 126.489 38.1142 126.489 39.334C126.489 40.5597 127.26 41.2186 128.943 41.2186C130.636 41.2186 131.414 40.5597 131.414 39.334ZM125.828 39.328C125.828 37.7182 126.959 36.9991 128.943 36.9991C130.937 36.9991 132.075 37.7182 132.075 39.328C132.075 40.9437 130.937 41.6636 128.943 41.6636C126.959 41.6636 125.828 40.9437 125.828 39.328Z" fill="#61849C"/>
<path d="M136.11 39.3093C136.99 39.3093 137.534 39.1139 137.534 38.4007C137.534 37.6995 137.006 37.5167 136.086 37.5167H134.067V39.3093H136.11ZM135.927 39.7483H134.067V41.5898H133.422V37.0718H136.102C137.543 37.0718 138.196 37.4922 138.196 38.3889C138.196 39.1689 137.685 39.6265 136.604 39.7297L138.103 41.5898H137.4L135.927 39.7483Z" fill="#61849C"/>
<path d="M141.494 39.1934L140.254 40.1806V41.5898H139.609V37.0718H140.254V39.5655L143.395 37.0718H144.157L141.93 38.8457L144.459 41.5898H143.713L141.494 39.1934Z" fill="#61849C"/>
<path d="M145.008 41.1326L145.342 40.7671C146.087 41.1081 146.817 41.224 147.562 41.224C148.843 41.224 149.412 40.9618 149.412 40.34C149.412 39.6996 148.676 39.6083 147.562 39.4619C146.222 39.2911 145.317 39.1261 145.317 38.2124C145.317 37.3396 146.087 36.9986 147.562 36.9986C148.534 36.9986 149.229 37.1568 149.723 37.4012L149.371 37.7912C148.927 37.578 148.266 37.4376 147.562 37.4376C146.448 37.4376 145.971 37.6634 145.971 38.1998C145.971 38.7733 146.616 38.8825 147.722 39.0288C149.078 39.2056 150.057 39.352 150.057 40.3214C150.057 41.218 149.271 41.6504 147.579 41.6504C146.641 41.6504 145.794 41.5107 145.008 41.1326" fill="#61849C"/>
<path d="M156.548 18.3971C147.823 18.3971 147.453 21.243 147.453 25.2582V35.1152H149.51V25.2582C149.51 22.2318 149.346 19.8048 156.548 19.8048C157.319 19.8048 158.004 19.8346 158.62 19.8873V18.4603C157.985 18.4194 157.299 18.3971 156.548 18.3971Z" fill="#231F20"/>
<path d="M54.7891 28.7038V18.7265H56.8878V28.7336C56.8878 31.6099 56.847 34.0368 64.089 34.0368C71.2903 34.0368 71.126 31.6099 71.126 28.5835V18.7265H73.184V28.5835C73.184 32.5987 72.8126 35.4453 64.089 35.4453C55.3237 35.4453 54.7891 32.5987 54.7891 28.7038Z" fill="#231F20"/>
<path d="M95.0657 25.1379V35.1152H92.967V25.1081C92.967 22.2318 93.0078 19.8048 85.7658 19.8048C78.5635 19.8048 78.7288 22.2318 78.7288 25.2582V35.1152H76.6719V25.2582C76.6719 21.243 77.0422 18.3971 85.7658 18.3971C94.5311 18.3971 95.0657 21.243 95.0657 25.1379Z" fill="#231F20"/>
<path d="M98.875 18.7542H100.889V35.1128H98.875V18.7542Z" fill="#231F20"/>
<path d="M115.213 27.96C118.847 27.96 120.653 26.6704 120.653 24.0652C120.653 21.4614 118.704 20.2246 115.123 20.2246H106.678V27.96H115.213ZM104.664 18.7567H115.182C120.398 18.7567 122.763 20.6443 122.763 23.9998C122.763 27.3776 120.429 29.4309 115.154 29.4309H106.678V35.1152H104.664V18.7567Z" fill="#231F20"/>
<path d="M127.183 25.7668H142.49C142.285 22.5012 141.997 19.7147 135.453 19.7147C129.158 19.7147 127.43 22.2018 127.183 25.7668ZM125.125 26.8759C125.125 22.0525 127.019 18.3367 135.496 18.3367C144.261 18.3367 144.548 22.6208 144.508 27.1448H127.142C127.183 31.1303 128.54 34.0965 135.66 34.0965C139.446 34.0965 141.174 33.347 143.026 32.359L144.177 33.4673C142.12 34.5757 139.693 35.4448 135.66 35.4448C126.772 35.4448 125.125 31.6993 125.125 26.8759Z" fill="#231F20"/>
<path d="M42.1576 38.666C50.8811 38.666 51.2525 35.8201 51.2525 31.8049V18.7276H49.1945V31.8049C49.1945 34.8306 49.3588 37.2583 42.1576 37.2583C41.8851 37.2583 41.627 37.2531 41.375 37.2457V38.6586C41.628 38.663 41.8882 38.666 42.1576 38.666" fill="#231F20"/>
<path d="M154.023 33.2526C153.34 33.2526 152.785 33.6567 152.785 34.1529C152.785 34.6492 153.34 35.0533 154.023 35.0533C154.703 35.0533 155.258 34.6492 155.258 34.1529C155.258 33.6567 154.703 33.2526 154.023 33.2526ZM154.023 35.187C153.239 35.187 152.602 34.7235 152.602 34.1529C152.602 33.5832 153.239 33.1189 154.023 33.1189C154.806 33.1189 155.442 33.5832 155.442 34.1529C155.442 34.7235 154.806 35.187 154.023 35.187Z" fill="#231F20"/>
<path d="M154.161 34.1426C154.383 34.1426 154.512 34.0958 154.512 33.922C154.512 33.7504 154.387 33.711 154.154 33.711H153.655V34.1426H154.161ZM154.11 34.2912H153.655V34.748H153.438V33.5602H154.164C154.577 33.5602 154.736 33.6835 154.736 33.9183C154.736 34.1099 154.624 34.2422 154.343 34.28L154.711 34.748H154.475L154.11 34.2912Z" fill="#231F20"/>
</svg>
