<svg width="200" height="60" viewBox="0 0 200 60" fill="none" xmlns="http://www.w3.org/2000/svg">
<rect width="200" height="60" fill="white" fill-opacity="0.07"/>
<path d="M45.5 38.5013V10.1007H49.5261V38.5012L45.5 38.5013ZM59.8325 17.8977C54.6702 17.8977 51.098 22.8157 51.098 28.4449C51.098 34.7273 54.9843 39.0554 59.8726 39.0554C64.5119 39.0554 68.5378 34.8073 68.5378 28.4314C68.5378 23.07 65.2017 17.8977 59.8325 17.8977ZM59.785 22.7105C62.4866 22.7105 64.475 25.316 64.475 28.463C64.475 31.7997 62.2825 34.2336 59.8578 34.2336C56.9929 34.2336 55.1898 31.42 55.1898 28.472C55.1899 25.2408 57.2256 22.7105 59.785 22.7105ZM78.6536 17.8977C73.4915 17.8977 69.9192 22.8157 69.9192 28.4449C69.9192 34.7273 73.8055 39.0554 78.6937 39.0554C83.333 39.0554 87.3589 34.8073 87.3589 28.4314C87.3589 24.6769 86.0467 23.0111 86.0467 23.0111L87.1627 22.5368V18.4879H81.4444C81.4444 18.4879 80.2045 17.8977 78.6536 17.8977ZM78.6062 22.7105C81.3077 22.7105 83.2962 25.316 83.2962 28.463C83.2962 31.7997 81.1038 34.2336 78.6791 34.2336C75.8141 34.2336 74.0111 31.42 74.0111 28.472C74.0111 25.2408 76.0469 22.7105 78.6062 22.7105ZM83.2677 39.8897C83.2677 43.2262 81.0754 45.6784 78.6507 45.6784C75.7856 45.6784 73.9753 42.8374 73.9753 39.8897H69.8908C69.8908 46.1721 73.7769 50.5 78.6654 50.5C83.3046 50.5 87.3305 46.2651 87.3305 39.8897H83.2677ZM88.9715 38.5013V18.4879H92.9978V38.5013H88.9715ZM96.9073 38.5013V22.9708H94.7483V18.4879H96.9073V12.3421H100.934V18.4879H103.151V22.9708H100.934V38.5013H96.9073ZM93.6424 12.8037C93.6424 14.6282 92.4487 16.1074 90.9763 16.1074C89.5037 16.1074 88.3101 14.6281 88.3101 12.8037C88.3101 10.9791 89.5038 9.5 90.9763 9.5C92.4488 9.5 93.6424 10.9791 93.6424 12.8037ZM112.203 17.8842C107.016 17.8842 103.672 22.8046 103.672 28.6257C103.672 34.6411 107.027 39.069 112.287 39.069C117.193 39.069 119.606 35.2729 119.606 35.2729L116.915 31.9333C116.915 31.9333 114.882 34.6494 112.338 34.6494C110.216 34.6494 108.52 33.1822 107.928 30.4919H120.474V29.1183C120.474 23.6367 117.914 17.8842 112.203 17.8842ZM112.075 22.2767C113.93 22.2767 115.827 23.5061 116.251 26.4431H107.819C108.153 24.3785 109.611 22.2767 112.075 22.2767ZM130.545 39.0717C125.343 39.0717 121.799 34.1628 121.799 28.3753C121.799 22.4024 125.805 17.8805 130.528 17.8805C135.094 17.8805 137.431 21.8744 137.431 21.8744L134.622 25.3389C134.622 25.3389 132.995 22.7341 130.509 22.7341C127.753 22.7341 125.868 25.3466 125.868 28.4519C125.868 31.7306 127.873 34.2464 130.478 34.2464C133.005 34.2464 134.619 31.6459 134.619 31.6459L137.455 35.1085C137.455 35.1085 135.141 39.0717 130.545 39.0717ZM138.92 38.5158V10.0285H142.946V20.4949C142.946 20.4949 144.488 17.8805 147.842 17.8805C152.058 17.8805 154.5 21.7637 154.5 26.7305V38.5157H150.474V27.4845C150.474 24.1477 148.797 22.7633 146.94 22.7633C144.824 22.7633 142.947 24.2556 142.947 27.7425V38.5158H138.92Z" fill="black"/>
</svg>
