<svg width="24" height="24" viewBox="0 0 24 24" fill="none" xmlns="http://www.w3.org/2000/svg">
<path d="M17.8335 9.50877C17.6843 9.44609 17.5126 9.51632 17.45 9.66571L15.5786 14.1299C15.4359 14.4703 15.9723 14.7067 16.1189 14.3569L17.9903 9.89273C18.0529 9.74334 17.9827 9.57146 17.8335 9.50877Z" fill="black"/>
<path d="M15.8961 9.48584C15.4493 9.48584 15.0859 9.88731 15.0859 10.3808C15.0859 10.8742 15.4494 11.2757 15.8961 11.2757C16.3427 11.2757 16.7062 10.8742 16.7062 10.3808C16.7062 9.88731 16.3428 9.48584 15.8961 9.48584ZM15.8961 10.6891C15.7745 10.6891 15.6719 10.5479 15.6719 10.3808C15.6719 10.2137 15.7745 10.0725 15.8961 10.0725C16.0176 10.0725 16.1202 10.2137 16.1202 10.3808C16.1202 10.5479 16.0176 10.6891 15.8961 10.6891Z" fill="black"/>
<path d="M16.875 13.642C16.875 14.1355 17.2384 14.5369 17.6851 14.5369C18.1318 14.5369 18.4952 14.1354 18.4952 13.642C18.4952 13.1485 18.1318 12.7471 17.6851 12.7471C17.2384 12.7471 16.875 13.1485 16.875 13.642ZM17.9093 13.642C17.9093 13.8091 17.8066 13.9503 17.6851 13.9503C17.5636 13.9503 17.4609 13.8091 17.4609 13.642C17.4609 13.4748 17.5636 13.3337 17.6851 13.3337C17.8066 13.3337 17.9093 13.4748 17.9093 13.642Z" fill="black"/>
<path d="M6.81668 14.6837C6.97848 14.6837 7.10965 14.5524 7.10965 14.3904V9.63217C7.10965 9.47019 6.97848 9.33887 6.81668 9.33887H5.80078C5.63898 9.33887 5.50781 9.47019 5.50781 9.63217C5.50781 9.79415 5.63898 9.92547 5.80078 9.92547H6.52367V14.3904C6.52371 14.5524 6.65488 14.6837 6.81668 14.6837Z" fill="black"/>
<path d="M7.73438 10.911V13.1115C7.73438 14.0319 8.48234 14.7808 9.40176 14.7808C10.3212 14.7808 11.0691 14.0319 11.0691 13.1115V10.911C11.0691 9.99052 10.3212 9.2417 9.40176 9.2417C8.48234 9.2417 7.73438 9.99056 7.73438 10.911ZM8.32031 10.911C8.32031 10.314 8.80543 9.8283 9.40176 9.8283C9.99809 9.8283 10.4832 10.314 10.4832 10.911V13.1115C10.4832 13.7085 9.99809 14.1942 9.40176 14.1942C8.80543 14.1942 8.32031 13.7085 8.32031 13.1115V10.911Z" fill="black"/>
<path d="M11.3984 10.911V13.1115C11.3984 14.0319 12.1464 14.7808 13.0658 14.7808C13.9852 14.7808 14.7332 14.0319 14.7332 13.1115V10.911C14.7332 9.99052 13.9852 9.2417 13.0658 9.2417C12.1464 9.2417 11.3984 9.99056 11.3984 10.911ZM14.1472 10.911V13.1115C14.1472 13.7085 13.6621 14.1942 13.0658 14.1942C12.4695 14.1942 11.9843 13.7085 11.9843 13.1115V10.911C11.9843 10.314 12.4695 9.8283 13.0658 9.8283C13.6621 9.8283 14.1472 10.314 14.1472 10.911Z" fill="black"/>
<path d="M19.0711 4.93223C17.1823 3.04134 14.6711 2 12 2C9.32891 2 6.8177 3.04134 4.92891 4.93223C3.0402 6.82313 2 9.33723 2 12.0114C2 14.567 2.96188 17 4.7084 18.8622C6.44684 20.7157 8.79551 21.8298 11.3217 21.9993C11.3284 21.9998 11.335 22 11.3416 22C11.4945 22 11.6232 21.8812 11.6336 21.7263C11.6445 21.5647 11.5223 21.4249 11.3609 21.414C8.98309 21.2545 6.77223 20.2056 5.13555 18.4606C3.49141 16.7077 2.58594 14.4173 2.58594 12.0114C2.58594 9.49389 3.56516 7.12715 5.34324 5.34704C7.12133 3.56693 9.48539 2.5866 12 2.5866C14.5146 2.5866 16.8787 3.56693 18.6567 5.34704C20.4348 7.12715 21.4141 9.49389 21.4141 12.0114C21.4141 14.378 20.5343 16.6406 18.9368 18.3826C17.349 20.1139 15.1923 21.1842 12.8638 21.3962C12.7027 21.4109 12.5839 21.5536 12.5986 21.7149C12.6132 21.8762 12.7554 21.9949 12.9169 21.9804C15.3907 21.7552 17.6818 20.6183 19.3683 18.7794C21.0654 16.9289 22 14.5253 22 12.0114C22 9.33723 20.9598 6.82317 19.0711 4.93223Z" fill="black"/>
<path d="M8.71591 7.2156C8.50833 7.51946 8.97626 7.87361 9.19954 7.54676C9.34665 7.33144 9.50997 7.13496 9.68521 6.95902C9.80786 7.20653 9.98861 7.42486 10.2352 7.58113C10.5553 7.78398 10.8687 7.28834 10.5486 7.08549C10.3583 6.96489 10.2276 6.77565 10.1507 6.56009C10.8409 6.05941 11.6414 5.84561 12.3648 6.01017C12.7342 6.0946 12.864 5.5222 12.4947 5.43816C11.6621 5.24872 10.7913 5.46494 10.0733 5.90454C10.0909 5.71644 10.148 5.54609 10.2305 5.37875C10.6817 4.51367 11.8129 4.29537 12.647 4.58434C13.6347 4.92742 14.2779 5.78875 14.594 6.75922C13.7895 6.51164 12.8994 6.90521 12.2089 7.2106C11.7617 7.42064 12.0485 7.86837 12.4457 7.74718C13.2634 7.38548 14.1902 6.97552 14.8477 7.56659C15.0506 7.74882 15.3797 7.56518 15.3318 7.2964C15.2009 6.56831 14.9289 5.89207 14.5452 5.3409C14.0999 4.70138 13.5089 4.24782 12.8358 4.0291C12.2681 3.83305 11.6443 3.82195 11.0787 3.99781C10.4701 4.18713 9.9838 4.58226 9.70943 5.11048C9.51638 5.48657 9.44611 5.90623 9.49935 6.32776C9.20911 6.5818 8.94529 6.87983 8.71591 7.2156Z" fill="black"/>
<path d="M10.7194 19.7934C11.892 20.3983 13.5908 20.2026 14.2608 18.952C14.4834 18.5365 14.5684 18.0992 14.5137 17.6837C14.799 17.432 15.0586 17.1379 15.2847 16.807C15.4986 16.4939 15.015 16.1629 14.8011 16.4758C14.6541 16.6909 14.4909 16.8872 14.3158 17.063C14.0913 16.6411 13.7066 16.3263 13.2143 16.1668C12.4159 15.9081 11.7189 16.1943 11.104 16.4469C10.3814 16.7437 9.81071 16.9781 9.13934 16.4445C8.93008 16.2782 8.61766 16.4691 8.66985 16.7314C8.87243 17.7504 9.39247 19.1088 10.7194 19.7934ZM11.3264 16.9896C11.8989 16.7545 12.4396 16.5324 13.0339 16.7249C13.4236 16.8511 13.7148 17.1109 13.8536 17.4562C13.854 17.457 13.8542 17.4579 13.8546 17.4588C13.1632 17.962 12.3607 18.1772 11.6357 18.0123C11.2664 17.9282 11.1365 18.5003 11.5059 18.5843C12.3396 18.774 13.2119 18.5568 13.9306 18.1159C13.9018 18.3132 13.8398 18.4995 13.7444 18.6747C13.2374 19.621 11.9097 19.7475 10.9877 19.2719C10.1225 18.8255 9.65934 18.0162 9.41169 17.2596C10.1046 17.4914 10.7453 17.2283 11.3264 16.9896Z" fill="black"/>
</svg>
