<svg width="24" height="24" viewBox="0 0 24 24" fill="none" xmlns="http://www.w3.org/2000/svg">
<path d="M6.29687 6.52637C6.08125 6.52637 5.90625 6.71501 5.90625 6.94744C5.90625 7.17987 6.08125 7.36851 6.29687 7.36851C6.5125 7.36851 6.6875 7.17987 6.6875 6.94744C6.6875 6.71501 6.5125 6.52637 6.29687 6.52637Z" fill="black"/>
<path d="M20.3955 10.1275L19.8303 8.90895C19.6305 8.47811 19.2289 8.21052 18.7821 8.21052H15.5151V5.26317C15.5151 4.56667 14.9894 4 14.3432 4H3.17183C2.52566 4 2 4.56663 2 5.26317V16.2105C2 16.907 2.52566 17.4737 3.17183 17.4737H4.34367C4.34367 18.1202 4.57043 18.7106 4.94234 19.1579H2.39062C2.17488 19.1579 2 19.3464 2 19.5789C2 19.8114 2.17488 20 2.39062 20H21.6086C21.8243 20 21.9992 19.8114 21.9992 19.5789C21.9992 19.3464 21.8243 19.1579 21.6086 19.1579H20.6193C20.9912 18.7105 21.218 18.1202 21.218 17.4737C21.218 17.4497 21.2169 17.4258 21.2163 17.4018C21.6718 17.2285 21.9992 16.7601 21.9992 16.2105V13.8829C21.9992 13.3916 22.0894 13.8503 20.3955 10.1275ZM19.8047 10.7368L20.9765 13.2631H17.0775V10.7368H19.8047ZM2.78121 14.1052H3.56242V14.9473H2.78121V14.1052ZM6.6873 19.1579C5.82578 19.1579 5.12488 18.4023 5.12488 17.4737C5.12488 17.359 5.13543 17.2461 5.15652 17.1363C5.30343 16.3559 5.94722 15.7894 6.6873 15.7894C7.42738 15.7894 8.07121 16.3559 8.21808 17.1363C8.2182 17.1369 8.21832 17.1375 8.21843 17.1381C8.23921 17.246 8.24972 17.359 8.24972 17.4737C8.24972 18.4023 7.54882 19.1579 6.6873 19.1579ZM6.6873 14.9473C5.68648 14.9473 4.80324 15.6384 4.47761 16.6315H3.17183C2.95644 16.6315 2.78121 16.4426 2.78121 16.2105V15.7894H3.95305C4.16879 15.7894 4.34367 15.6008 4.34367 15.3683V13.6841C4.34367 13.4516 4.16879 13.2631 3.95305 13.2631H2.78121V5.26317C2.78121 5.03099 2.95644 4.8421 3.17183 4.8421H14.3432C14.5586 4.8421 14.7339 5.03099 14.7339 5.26317C14.7339 5.5764 14.7339 15.6218 14.7339 16.6316H8.89679C8.57058 15.6379 7.68769 14.9473 6.6873 14.9473ZM8.43226 19.1579C8.80421 18.7105 9.03093 18.1202 9.03093 17.4737C9.33085 17.4737 16.4029 17.4737 16.5306 17.4737C16.5306 18.1202 16.7574 18.7106 17.1293 19.1579H8.43226ZM18.8743 19.1579C18.0128 19.1579 17.3119 18.4023 17.3119 17.4737C17.3119 17.359 17.3224 17.2461 17.3435 17.1363C17.4904 16.3559 18.1342 15.7894 18.8743 15.7894C19.6144 15.7894 20.2582 16.3559 20.4051 17.1363C20.4052 17.1369 20.4053 17.1375 20.4054 17.1381C20.4262 17.246 20.4367 17.359 20.4367 17.4737C20.4367 18.4023 19.7358 19.1579 18.8743 19.1579ZM21.218 16.2105C21.218 16.3506 21.1539 16.4745 21.0561 16.5511C20.7096 15.6008 19.8474 14.9474 18.8743 14.9474C17.8735 14.9474 16.9902 15.6385 16.6646 16.6316H15.515V9.05262H18.7821C18.931 9.05262 19.0649 9.14189 19.1315 9.28551L19.4141 9.89472H16.6869C16.4712 9.89472 16.2963 10.0833 16.2963 10.3158V13.6842C16.2963 13.9167 16.4712 14.1053 16.6869 14.1053H21.218V16.2105Z" fill="black"/>
<path d="M12.7811 6.52637H7.85937C7.64363 6.52637 7.46875 6.71492 7.46875 6.94744C7.46875 7.17995 7.64363 7.36851 7.85937 7.36851H12.7811C12.9968 7.36851 13.1717 7.17995 13.1717 6.94744C13.1717 6.71492 12.9968 6.52637 12.7811 6.52637Z" fill="black"/>
<path d="M12.7811 8.21045H9.42187C9.20613 8.21045 9.03125 8.399 9.03125 8.63152C9.03125 8.86403 9.20613 9.05259 9.42187 9.05259H12.7811C12.9969 9.05259 13.1718 8.86403 13.1718 8.63152C13.1718 8.399 12.9968 8.21045 12.7811 8.21045Z" fill="black"/>
<path d="M18.875 16.6313C18.4442 16.6313 18.0938 17.0091 18.0938 17.4734C18.0938 17.9378 18.4442 18.3155 18.875 18.3155C19.3057 18.3155 19.6562 17.9378 19.6562 17.4734C19.6562 17.0091 19.3057 16.6313 18.875 16.6313Z" fill="black"/>
<path d="M6.68746 16.6313C6.25668 16.6313 5.90625 17.0091 5.90625 17.4734C5.90625 17.9378 6.25672 18.3155 6.68746 18.3155C7.11824 18.3155 7.46867 17.9378 7.46867 17.4734C7.46867 17.0091 7.11824 16.6313 6.68746 16.6313Z" fill="black"/>
</svg>
