<svg width="24" height="24" viewBox="0 0 24 24" fill="none" xmlns="http://www.w3.org/2000/svg">
<path d="M8.80288 10.9813C10.4004 10.9813 11.6998 8.9672 11.6998 6.49086C11.6998 4.0147 10.4004 2 8.80288 2C7.20579 2 5.90625 4.01464 5.90625 6.49086C5.90625 8.9672 7.20579 10.9813 8.80288 10.9813Z" fill="#4895A5"/>
<path d="M17.3929 15.3494C17.3335 15.2559 17.2766 15.1677 17.2461 15.0919C16.5984 13.4904 14.8228 11.6024 11.9461 11.5554L11.8355 11.5547C9.00301 11.5547 7.24064 13.3428 6.53553 15.0169C6.51118 15.0741 6.4576 15.1485 6.40085 15.227C6.33369 15.3191 6.26725 15.4133 6.21045 15.5157C5.61479 16.586 5.31109 17.7911 5.3559 18.9086C5.40286 20.0951 5.83293 21.0481 6.5648 21.5917C6.8605 21.8111 7.17958 21.9217 7.51435 21.9217C8.20465 21.9217 8.83665 21.4726 9.56904 20.9524C10.0347 20.621 10.5157 20.2789 11.0499 20.023C11.1098 20.0002 11.3551 19.9653 11.7564 19.9653C12.2335 19.9653 12.5762 20.0144 12.6494 20.0436C13.1709 20.3095 13.6289 20.6583 14.0719 20.995C14.7511 21.512 15.3923 21.9999 16.088 21.9999C16.3866 21.9999 16.676 21.9089 16.949 21.7297C18.4553 20.7412 18.7423 18.0293 17.589 15.6846C17.5312 15.567 17.4622 15.4571 17.3929 15.3494Z" fill="#4895A5"/>
<path d="M14.9596 10.9813C16.5564 10.9813 17.8561 8.9672 17.8561 6.49086C17.8561 4.0147 16.5564 2 14.9596 2C13.3619 2 12.0625 4.01464 12.0625 6.49086C12.0625 8.9672 13.3619 10.9813 14.9596 10.9813Z" fill="#4895A5"/>
<path d="M19.7199 8.67529C18.4395 8.67529 17.4375 10.209 17.4375 12.167C17.4375 14.1241 18.4402 15.6579 19.7199 15.6579C20.9996 15.6579 22.0028 14.1241 22.0028 12.167C22.0028 10.2091 21.0002 8.67529 19.7199 8.67529Z" fill="#4895A5"/>
<path d="M6.56513 12.167C6.56513 10.2091 5.56247 8.67529 4.28267 8.67529C3.00281 8.67529 2 10.2091 2 12.167C2 14.1241 3.00281 15.6579 4.28267 15.6579C5.56252 15.6579 6.56513 14.1241 6.56513 12.167Z" fill="#4895A5"/>
</svg>
