<svg width="24" height="24" viewBox="0 0 24 24" fill="none" xmlns="http://www.w3.org/2000/svg">
<path fill-rule="evenodd" clip-rule="evenodd" d="M20.873 12.7223C20.8979 12.6441 20.8836 12.5587 20.8344 12.4925C20.7853 12.4263 20.7072 12.3872 20.6241 12.3872H3.37025C3.28717 12.3872 3.20904 12.4263 3.15995 12.4925C3.1108 12.5587 3.09647 12.6441 3.12138 12.7223C3.12138 12.7223 3.96961 15.3886 4.69255 17.6611C5.32471 19.6482 7.18845 21 9.29605 21H14.6983C16.8058 21 18.6697 19.6482 19.3018 17.6611C20.0248 15.3886 20.873 12.7223 20.873 12.7223ZM20.2686 12.9028L18.8041 17.5064C18.2403 19.2787 16.578 20.4843 14.6983 20.4843C13.0146 20.4843 10.9798 20.4843 9.29605 20.4843C7.41635 20.4843 5.75408 19.2787 5.19029 17.5064L3.72575 12.9028H20.2686Z" fill="black"/>
<path fill-rule="evenodd" clip-rule="evenodd" d="M22 11.4396C22 11.1492 21.8833 10.8708 21.6756 10.6654C21.4678 10.4601 21.186 10.3447 20.8923 10.3447C17.6863 10.3447 6.31368 10.3447 3.10774 10.3447C2.81391 10.3447 2.53217 10.4601 2.32444 10.6654C2.1167 10.8708 2 11.1492 2 11.4396V11.808C2 12.0984 2.1167 12.3769 2.32444 12.5822C2.53217 12.7875 2.81391 12.9028 3.10774 12.9028H20.8923C21.186 12.9028 21.4678 12.7875 21.6756 12.5822C21.8833 12.3769 22 12.0984 22 11.808V11.4396ZM21.4783 11.4396V11.808C21.4783 11.9616 21.4165 12.1089 21.3066 12.2175C21.1967 12.3262 21.0477 12.3872 20.8923 12.3872C17.6863 12.3872 6.31368 12.3872 3.10774 12.3872C2.95228 12.3872 2.80327 12.3262 2.69333 12.2175C2.58345 12.1089 2.52172 11.9616 2.52172 11.808V11.4396C2.52172 11.286 2.58345 11.1386 2.69333 11.03C2.80327 10.9214 2.95228 10.8604 3.10774 10.8604H20.8923C21.0477 10.8604 21.1967 10.9214 21.3066 11.03C21.4165 11.1386 21.4783 11.286 21.4783 11.4396Z" fill="black"/>
<path fill-rule="evenodd" clip-rule="evenodd" d="M5.6476 5.02303C5.03335 6.23108 5.30632 7.72502 6.65153 8.51199C7.66141 9.1028 8.75669 9.06716 9.70834 8.80282C11.0941 8.41787 12.1644 7.5491 12.1644 7.5491C12.2384 7.48913 12.2731 7.3939 12.255 7.30102C12.2369 7.20814 12.1688 7.13253 12.0776 7.104C11.1053 6.79993 10.6385 6.19662 10.1869 5.60506C9.85047 5.16436 9.52152 4.72873 9.04719 4.39119C8.27329 3.84034 7.35813 3.87809 6.66268 4.17102C6.18422 4.37256 5.81345 4.69674 5.6476 5.02303ZM6.11379 5.25452C6.23506 5.0161 6.51755 4.79272 6.86722 4.64538C7.41386 4.41513 8.13398 4.37665 8.74235 4.80961C9.28755 5.19765 9.61537 5.73426 10.0194 6.2351C10.3868 6.69053 10.8093 7.11997 11.4586 7.41896C11.0579 7.68486 10.3698 8.08342 9.56716 8.30643C8.7426 8.53544 7.79233 8.58018 6.91731 8.06826C5.83305 7.43394 5.61874 6.22824 6.11379 5.25452Z" fill="black"/>
<path fill-rule="evenodd" clip-rule="evenodd" d="M4.452 3.36209C4.82158 4.18823 5.26604 4.84488 5.74287 5.36763C6.9186 6.65638 8.29336 7.13457 9.25816 7.31371C9.39966 7.34001 9.53608 7.24781 9.56269 7.10796C9.5893 6.96812 9.49602 6.83322 9.35446 6.80693C8.46961 6.64264 7.20867 6.20429 6.13042 5.02229C5.68621 4.53543 5.27343 3.92302 4.92921 3.15356C4.87098 3.02343 4.71677 2.96452 4.58511 3.02206C4.45344 3.07961 4.39378 3.23196 4.452 3.36209Z" fill="black"/>
<path fill-rule="evenodd" clip-rule="evenodd" d="M13.7082 10.6303L14.6043 7.32492C14.6252 7.24795 14.6089 7.16571 14.56 7.10222C14.2136 6.65175 14.0739 6.05326 14.2334 5.46486C14.5072 4.45512 15.5588 3.85502 16.5805 4.12556C17.6021 4.39615 18.2093 5.43553 17.9355 6.44526C17.776 7.03366 17.3522 7.4829 16.8244 7.70183C16.7497 7.73283 16.6937 7.79631 16.6731 7.87372C16.4391 8.74875 16.2032 9.62482 15.9656 10.5018C15.9284 10.6392 16.0111 10.7807 16.1501 10.8175C16.2892 10.8543 16.4324 10.7725 16.4696 10.6351C16.6966 9.79722 16.9221 8.96013 17.1458 8.12396C17.7612 7.82961 18.2487 7.28229 18.4395 6.57867C18.7878 5.29407 18.0152 3.97173 16.7155 3.6275C15.4157 3.28327 14.0778 4.04679 13.7295 5.33138C13.5387 6.03513 13.6841 6.75026 14.0685 7.30952C14.0684 7.30933 13.2042 10.4969 13.2042 10.4969C13.167 10.6343 13.2496 10.7758 13.3887 10.8126C13.5277 10.8495 13.6709 10.7678 13.7082 10.6303Z" fill="black"/>
</svg>
