<svg width="24" height="24" viewBox="0 0 24 24" fill="none" xmlns="http://www.w3.org/2000/svg">
<path d="M11.5416 8.09365C12.0671 8.06282 12.5894 7.99182 13.104 7.88127C13.4452 7.63237 13.7207 7.30441 13.9071 6.92557C14.1227 7.74073 14.7039 8.24669 15.4414 8.24669C16.7944 8.24669 18.2537 7.56271 18.2537 6.06044C18.2937 5.24147 18.3982 4.42691 18.5662 3.62434C18.5816 3.54963 18.5692 3.47185 18.5312 3.40568C18.4932 3.33951 18.4323 3.28953 18.3599 3.26517C18.2506 3.23081 17.2413 2.95285 15.307 3.90855C14.7799 4.16573 14.3558 4.59406 14.104 5.12348C13.7915 3.94291 12.5915 2.93723 11.3791 2.93723C10.6167 2.93723 8.71992 2.27511 8.05434 2.02213C8.01036 2.00464 7.96298 1.99736 7.91578 2.00085C7.86857 2.00434 7.82278 2.01849 7.78185 2.04226C7.74092 2.06602 7.70593 2.09876 7.67951 2.13802C7.6531 2.17728 7.63595 2.22202 7.62937 2.26886C7.61062 2.40004 7.18564 5.53574 8.92303 7.16294C9.64085 7.80296 10.5807 8.137 11.5416 8.09365ZM15.582 4.46448C16.2672 4.08911 17.0294 3.87545 17.81 3.83984H17.885C17.7409 4.57209 17.6552 5.31463 17.6287 6.06044C17.6287 7.13483 16.4944 7.62205 15.4414 7.62205C15.3665 7.62275 15.2918 7.61329 15.2195 7.59394L16.6319 5.61695C16.6718 5.5497 16.6849 5.46998 16.6688 5.3935C16.6527 5.31702 16.6085 5.24936 16.545 5.20386C16.4814 5.15836 16.4031 5.13834 16.3254 5.14774C16.2478 5.15714 16.1766 5.19529 16.1257 5.25465L14.7195 7.21915C14.6196 7.07406 14.5466 6.9122 14.5039 6.7413C14.4037 6.29598 14.4554 5.82996 14.6508 5.41739C14.8461 5.00481 15.1739 4.66939 15.582 4.46448ZM8.21683 2.74672C8.96053 3.01531 10.5823 3.56187 11.3791 3.56187C11.9454 3.60375 12.4777 3.84753 12.8792 4.24881C13.2807 4.65009 13.5246 5.18217 13.5665 5.74812C13.5675 6.01568 13.5152 6.28076 13.4128 6.52795C13.3103 6.77513 13.1597 6.99947 12.9696 7.18792L10.3604 4.28958C10.3338 4.25639 10.3006 4.229 10.2629 4.20909C10.2253 4.18917 10.184 4.17717 10.1415 4.1738C10.0991 4.17043 10.0564 4.17577 10.016 4.1895C9.97573 4.20323 9.93864 4.22504 9.90707 4.25362C9.8755 4.28219 9.8501 4.31691 9.83244 4.35565C9.81478 4.39439 9.80523 4.43633 9.80438 4.47889C9.80353 4.52145 9.81139 4.56374 9.82749 4.60316C9.84358 4.64257 9.86757 4.67828 9.89797 4.70809L12.3166 7.40967C11.0291 7.58457 10.0292 7.35033 9.34176 6.70695C8.18245 5.61382 8.16683 3.59311 8.21683 2.74672Z" fill="black"/>
<path d="M14.1875 11.3701V8.24689C14.1875 8.16406 14.1545 8.08462 14.0959 8.02605C14.0373 7.96748 13.9579 7.93457 13.875 7.93457C13.7921 7.93457 13.7126 7.96748 13.654 8.02605C13.5954 8.08462 13.5625 8.16406 13.5625 8.24689V11.3701C13.5625 11.4529 13.5954 11.5324 13.654 11.5909C13.7126 11.6495 13.7921 11.6824 13.875 11.6824C13.9579 11.6824 14.0373 11.6495 14.0959 11.5909C14.1545 11.5324 14.1875 11.4529 14.1875 11.3701Z" fill="black"/>
<path d="M21.6875 14.4929H21.2688C21.3298 14.2898 21.3655 14.08 21.375 13.8682C21.375 13.7854 21.3421 13.706 21.2835 13.6474C21.2249 13.5888 21.1454 13.5559 21.0626 13.5559H20.5376C20.6599 13.2575 20.7317 12.9409 20.7501 12.619C20.7501 12.5361 20.7172 12.4567 20.6586 12.3981C20.6 12.3395 20.5205 12.3066 20.4376 12.3066H19.1877C19.1316 12.3067 19.0765 12.3218 19.0283 12.3504L17.4659 13.2873C17.4034 13.3328 17.3599 13.3999 17.3439 13.4755C17.328 13.5512 17.3407 13.6301 17.3796 13.6969C17.4184 13.7637 17.4808 13.8138 17.5544 13.8374C17.6281 13.8609 17.7079 13.8564 17.7784 13.8245L19.2752 12.9313H20.0782C20.0501 13.0656 19.8908 13.5559 19.8908 13.5559H19.8126C19.7566 13.5559 19.7015 13.571 19.6533 13.5996L18.0909 14.5366C18.0283 14.5821 17.9849 14.6491 17.9689 14.7248C17.9529 14.8005 17.9656 14.8793 18.0045 14.9462C18.0434 15.013 18.1057 15.0631 18.1794 15.0866C18.2531 15.1102 18.3329 15.1056 18.4034 15.0738L19.9001 14.1806H20.7032L20.6126 14.4929H20.4376C20.3815 14.4929 20.3265 14.508 20.2782 14.5366L15.0692 17.5974L9.5008 16.4824C9.41219 16.4627 9.33373 16.4116 9.27996 16.3385C9.22619 16.2655 9.20076 16.1754 9.20839 16.085C9.21602 15.9946 9.2562 15.91 9.32146 15.847C9.38672 15.7839 9.47265 15.7467 9.5633 15.7422H14.188C14.5195 15.7422 14.8374 15.6106 15.0718 15.3763C15.3062 15.142 15.4379 14.8242 15.4379 14.4929C15.4379 14.1616 15.3062 13.8438 15.0718 13.6095C14.8374 13.3752 14.5195 13.2436 14.188 13.2436H7.15407C6.57617 13.2394 6.02008 13.464 5.6073 13.8682L2.0919 17.3944C2.03306 17.4532 2 17.5329 2 17.6161C2 17.6993 2.03306 17.779 2.0919 17.8378C2.15074 17.8967 2.23054 17.9297 2.31376 17.9297C2.39697 17.9297 2.47678 17.8967 2.53562 17.8378L6.06352 14.3242C6.35326 14.0353 6.74483 13.8716 7.15407 13.8682H14.188C14.3538 13.8682 14.5127 13.9341 14.6299 14.0512C14.7471 14.1683 14.813 14.3272 14.813 14.4929C14.813 14.6586 14.7471 14.8174 14.6299 14.9346C14.5127 15.0517 14.3538 15.1175 14.188 15.1175H9.5633C9.31713 15.1202 9.0806 15.2135 8.89901 15.3797C8.71741 15.5458 8.60352 15.7731 8.57914 16.0179C8.55476 16.2628 8.6216 16.508 8.76687 16.7066C8.91214 16.9053 9.12562 17.0434 9.36643 17.0945L15.0629 18.2407C15.139 18.2562 15.2181 18.2429 15.2848 18.2033L20.522 15.1175H21.3313C21.2282 15.5954 20.8688 16.5355 19.6439 17.3537L14.9411 20.4082C14.4991 20.6939 13.9976 20.8747 13.475 20.937C12.9524 20.9992 12.4224 20.9412 11.9256 20.7674L8.354 19.5181C8.30028 19.5008 8.24286 19.4983 8.18784 19.5109C8.13282 19.5236 8.08225 19.5509 8.04152 19.59L6.16664 21.4639C6.13735 21.4929 6.1141 21.5275 6.09824 21.5655C6.08237 21.6036 6.07421 21.6444 6.07421 21.6856C6.07421 21.7269 6.08237 21.7677 6.09824 21.8058C6.1141 21.8438 6.13735 21.8784 6.16664 21.9074C6.19569 21.9367 6.23025 21.9599 6.26833 21.9758C6.3064 21.9916 6.34725 21.9998 6.3885 21.9998C6.42975 21.9998 6.47059 21.9916 6.50867 21.9758C6.54675 21.9599 6.58131 21.9367 6.61036 21.9074L8.34462 20.1709L11.7163 21.364C12.3043 21.5675 12.931 21.6345 13.5488 21.5598C14.1665 21.4851 14.7592 21.2707 15.2817 20.9329L19.9689 17.8753C21.9781 16.548 22 14.877 22 14.8052C22 14.7224 21.9671 14.6429 21.9085 14.5844C21.8499 14.5258 21.7704 14.4929 21.6875 14.4929Z" fill="black"/>
<path d="M11.6865 11.3701C11.2709 11.369 10.861 11.466 10.4902 11.6532C10.1193 11.8405 9.79789 12.1127 9.55222 12.4476C9.5067 12.5161 9.49002 12.5998 9.50582 12.6805C9.52161 12.7611 9.5686 12.8324 9.63659 12.8786C9.67064 12.9017 9.70889 12.9177 9.74916 12.926C9.78943 12.9342 9.83092 12.9344 9.87127 12.9265C9.91162 12.9187 9.95002 12.903 9.98429 12.8803C10.0185 12.8576 10.048 12.8284 10.0709 12.7943C10.2608 12.5463 10.5054 12.3453 10.7855 12.207C11.0657 12.0686 11.374 11.9967 11.6865 11.9967C11.9989 11.9967 12.3072 12.0686 12.5874 12.207C12.8676 12.3453 13.1121 12.5463 13.302 12.7943C13.3306 12.8367 13.3693 12.8714 13.4145 12.8954C13.4597 12.9193 13.5102 12.9318 13.5613 12.9317C13.6228 12.9324 13.6829 12.9139 13.7332 12.8786C13.8017 12.8328 13.8493 12.7619 13.8657 12.6811C13.8821 12.6004 13.8659 12.5165 13.8207 12.4476C13.575 12.1127 13.2537 11.8405 12.8828 11.6532C12.5119 11.466 12.102 11.369 11.6865 11.3701Z" fill="black"/>
<path d="M14.5 12.6193C15.5374 12.6193 16.0905 13.6874 16.0968 13.6968C16.1227 13.7483 16.1624 13.7916 16.2115 13.8219C16.2606 13.8522 16.3172 13.8684 16.3749 13.8686C16.4239 13.8691 16.4723 13.8573 16.5155 13.8342C16.5891 13.7968 16.6448 13.7317 16.6706 13.6533C16.6964 13.5749 16.69 13.4895 16.653 13.4157C16.6248 13.3595 15.928 11.9946 14.5 11.9946C14.4171 11.9946 14.3376 12.0275 14.279 12.0861C14.2204 12.1447 14.1875 12.2241 14.1875 12.307C14.1875 12.3898 14.2204 12.4692 14.279 12.5278C14.3376 12.5864 14.4171 12.6193 14.5 12.6193Z" fill="black"/>
<path d="M16.2187 14.6491C16.3845 14.6491 16.5434 14.7149 16.6606 14.832C16.7778 14.9492 16.8437 15.108 16.8437 15.2737C16.8437 15.3565 16.8766 15.436 16.9352 15.4945C16.9938 15.5531 17.0733 15.586 17.1562 15.586C17.239 15.586 17.3185 15.5531 17.3771 15.4945C17.4357 15.436 17.4687 15.3565 17.4687 15.2737C17.4687 14.9424 17.337 14.6246 17.1026 14.3903C16.8682 14.156 16.5502 14.0244 16.2187 14.0244C16.1359 14.0244 16.0564 14.0573 15.9978 14.1159C15.9392 14.1745 15.9062 14.2539 15.9062 14.3367C15.9062 14.4196 15.9392 14.499 15.9978 14.5576C16.0564 14.6162 16.1359 14.6491 16.2187 14.6491Z" fill="black"/>
</svg>
