<svg width="36" height="29" viewBox="0 0 36 29" fill="none" xmlns="http://www.w3.org/2000/svg">
<path d="M20.4998 27.2889V22.1631C20.4998 21.468 21.1603 20.9047 21.975 20.9047C24.8818 20.9047 26.463 18.3608 26.6821 13.34H21.975C21.1603 13.34 20.4998 12.7762 20.4998 12.0813V1.25846C20.4998 0.563637 21.1603 0.000284195 21.975 0.000284195H34.5252C35.3402 0.000284195 36 0.564077 36 1.25846V12.0813C36 14.4882 35.716 16.6969 35.1561 18.6468C34.5819 20.6462 33.7004 22.3943 32.537 23.8428C31.3399 25.3314 29.8425 26.4996 28.086 27.3134C26.3176 28.1321 24.2613 28.5474 21.9745 28.5474C21.1603 28.5474 20.4998 27.9841 20.4998 27.2889ZM1.47526 20.9046C0.660954 20.9046 0 21.4684 0 22.163V27.2888C0 27.984 0.660851 28.5473 1.47526 28.5473C3.76111 28.5473 5.81781 28.1319 7.58554 27.3133C9.34234 26.4995 10.8406 25.3314 12.0379 23.8427C13.2009 22.3942 14.0823 20.646 14.6567 18.6462C15.2162 16.6957 15.5003 14.487 15.5003 12.0812V1.25837C15.5003 0.563547 14.8396 0.00019455 14.0251 0.00019455H1.47536C0.661057 0.00019455 0.000720978 0.563988 0.000720978 1.25837V12.0813C0.000720978 12.7761 0.660954 13.34 1.47536 13.34H6.11533C5.89948 18.3607 4.34141 20.9046 1.47526 20.9046Z" fill="#559EA8"/>
</svg>
