<svg width="36" height="34" viewBox="0 0 36 34" fill="none" xmlns="http://www.w3.org/2000/svg">
<path d="M15.5002 1.49881V7.60368C15.5002 8.43164 14.8397 9.1025 14.025 9.1025C11.1182 9.1025 9.53704 12.1323 9.31789 18.1121H14.025C14.8397 18.1121 15.5002 18.7836 15.5002 19.6113V32.5014C15.5002 33.3289 14.8397 33.9999 14.025 33.9999H1.47485C0.659818 33.9999 0 33.3284 0 32.5014V19.6113C0 16.7446 0.284017 14.114 0.843903 11.7917C1.41812 9.41041 2.29957 7.32836 3.46296 5.60317C4.66008 3.83019 6.15751 2.43891 7.914 1.46968C9.68235 0.494573 11.7387 0 14.0255 0C14.8397 0 15.5002 0.670855 15.5002 1.49881ZM34.5247 9.1026C35.339 9.1026 36 8.43112 36 7.60379V1.49892C36 0.67096 35.3391 0.000104747 34.5247 0.000104747C32.2389 0.000104747 30.1822 0.494783 28.4145 1.46978C26.6577 2.43901 25.1594 3.8303 23.9621 5.60328C22.7991 7.32847 21.9177 9.41062 21.3433 11.7924C20.7838 14.1155 20.4997 16.7461 20.4997 19.6114V32.5015C20.4997 33.329 21.1604 34 21.9749 34H34.5246C35.3389 34 35.9993 33.3285 35.9993 32.5015V19.6113C35.9993 18.7837 35.339 18.1121 34.5246 18.1121H29.8847C30.1005 12.1324 31.6586 9.1026 34.5247 9.1026Z" fill="#559EA8"/>
</svg>
