<svg width="38" height="38" viewBox="0 0 38 38" fill="none" xmlns="http://www.w3.org/2000/svg">
<rect width="38" height="38" rx="19" fill="#71AFDC"/>
<path d="M29 12.8979C28.2645 13.2186 27.4744 13.4353 26.6438 13.5333C27.5008 13.0286 28.142 12.2343 28.4477 11.2986C27.6425 11.7693 26.7612 12.1006 25.8422 12.2781C25.2242 11.6288 24.4057 11.1984 23.5136 11.0537C22.6216 10.9091 21.706 11.0583 20.909 11.4783C20.1119 11.8982 19.4781 12.5654 19.1058 13.3761C18.7336 14.1869 18.6437 15.0959 18.8503 15.9621C17.2187 15.8814 15.6226 15.4641 14.1655 14.7372C12.7085 14.0102 11.423 12.9899 10.3926 11.7424C10.0403 12.3405 9.83766 13.034 9.83766 13.7725C9.83727 14.4373 10.0036 15.092 10.322 15.6784C10.6404 16.2648 11.1009 16.7648 11.6627 17.134C11.0112 17.1136 10.374 16.9403 9.80419 16.6286V16.6806C9.80413 17.6131 10.1319 18.5169 10.7319 19.2386C11.3318 19.9603 12.1671 20.4555 13.0958 20.6402C12.4914 20.8012 11.8577 20.8249 11.2426 20.7096C11.5046 21.5119 12.0151 22.2135 12.7024 22.7162C13.3898 23.2188 14.2197 23.4974 15.0759 23.5128C13.6224 24.6357 11.8273 25.2448 9.97948 25.2421C9.65215 25.2422 9.32509 25.2234 9 25.1858C10.8757 26.3726 13.0591 27.0024 15.2891 27C22.8378 27 26.9644 20.8474 26.9644 15.5113C26.9644 15.338 26.96 15.1629 26.9521 14.9895C27.7548 14.4183 28.4476 13.7109 28.9982 12.9005L29 12.8979Z" fill="white"/>
</svg>
