<svg width="38" height="38" viewBox="0 0 38 38" fill="none" xmlns="http://www.w3.org/2000/svg">
<rect width="38" height="38" rx="19" fill="#C6504E"/>
<path d="M9 18.9311C9 18.8769 9 18.8153 9.00223 18.7439C9.00446 18.5445 9.00893 18.3204 9.01339 18.0816C9.03125 17.3946 9.0625 16.7101 9.11161 16.0649C9.17857 15.1761 9.27678 14.4349 9.41072 13.8784C9.55205 13.2977 9.82908 12.768 10.2141 12.3424C10.5992 11.9168 11.0787 11.6101 11.6049 11.4531C12.2366 11.2659 13.4732 11.1502 15.2143 11.0788C16.0424 11.0443 16.9286 11.0222 17.8147 11.0098C18.125 11.0049 18.4129 11.0025 18.6719 11H19.3281C19.5871 11.0025 19.875 11.0049 20.1853 11.0098C21.0714 11.0222 21.9576 11.0443 22.7857 11.0788C24.5268 11.1527 25.7656 11.2684 26.3951 11.4531C26.9214 11.6098 27.4012 11.9163 27.7863 12.342C28.1714 12.7677 28.4483 13.2975 28.5893 13.8784C28.7254 14.4349 28.8214 15.1761 28.8884 16.0649C28.9375 16.7101 28.9688 17.3946 28.9866 18.0816C28.9933 18.3204 28.9955 18.5445 28.9978 18.7439C28.9978 18.8153 29 18.8769 29 18.9311V19.0689C29 19.1231 29 19.1847 28.9978 19.2561C28.9955 19.4555 28.9911 19.6796 28.9866 19.9184C28.9688 20.6054 28.9375 21.2899 28.8884 21.9351C28.8214 22.8239 28.7232 23.5651 28.5893 24.1216C28.3036 25.301 27.4643 26.2318 26.3951 26.5469C25.7656 26.7341 24.5268 26.8498 22.7857 26.9212C21.9576 26.9557 21.0714 26.9778 20.1853 26.9901C19.875 26.9951 19.5871 26.9975 19.3281 27H18.6719C18.4129 26.9975 18.125 26.9951 17.8147 26.9901C16.9286 26.9778 16.0424 26.9557 15.2143 26.9212C13.4732 26.8473 12.2344 26.7316 11.6049 26.5469C10.5357 26.2318 9.69643 25.3035 9.41072 24.1216C9.27455 23.5651 9.17857 22.8239 9.11161 21.9351C9.0625 21.2899 9.03125 20.6054 9.01339 19.9184C9.00669 19.6796 9.00446 19.4555 9.00223 19.2561C9.00223 19.1847 9 19.1231 9 19.0689V18.9311ZM10.6071 19.0591C10.6071 19.1108 10.6071 19.1674 10.6094 19.2339C10.6116 19.426 10.6161 19.6377 10.6205 19.8667C10.6362 20.5217 10.6674 21.1767 10.7143 21.7849C10.7746 22.5777 10.8594 23.2278 10.9643 23.6636C11.1027 24.2324 11.5089 24.683 12.0223 24.8332C12.4911 24.9711 13.6719 25.0819 15.2768 25.1484C16.0893 25.1828 16.9643 25.205 17.8371 25.2173C18.1429 25.2222 18.4263 25.2247 18.6808 25.2247H19.3192L20.1629 25.2173C21.0357 25.205 21.9085 25.1828 22.7232 25.1484C24.3281 25.0794 25.5112 24.9711 25.9777 24.8332C26.4911 24.6805 26.8973 24.2324 27.0357 23.6636C27.1406 23.2278 27.2254 22.5777 27.2857 21.7849C27.3326 21.1767 27.3616 20.5217 27.3795 19.8667C27.3862 19.6377 27.3884 19.4235 27.3906 19.2339C27.3906 19.1674 27.3929 19.1083 27.3929 19.0591V18.9409C27.3929 18.8892 27.3929 18.8326 27.3906 18.7661C27.3884 18.574 27.3839 18.3623 27.3795 18.1333C27.3638 17.4783 27.3326 16.8233 27.2857 16.2151C27.2254 15.4223 27.1406 14.7722 27.0357 14.3364C26.8973 13.7676 26.4911 13.317 25.9777 13.1668C25.5089 13.0289 24.3281 12.9181 22.7232 12.8516C21.9107 12.8172 21.0357 12.795 20.1629 12.7827C19.8571 12.7778 19.5737 12.7753 19.3192 12.7753H18.6808L17.8371 12.7827C16.9643 12.795 16.0915 12.8172 15.2768 12.8516C13.6719 12.9206 12.4888 13.0289 12.0223 13.1668C11.5089 13.3195 11.1027 13.7676 10.9643 14.3364C10.8594 14.7722 10.7746 15.4223 10.7143 16.2151C10.6674 16.8233 10.6384 17.4783 10.6205 18.1333C10.6138 18.3623 10.6116 18.5765 10.6094 18.7661C10.6094 18.8326 10.6071 18.8917 10.6071 18.9409V19.0591ZM20.9866 22.2995L15.808 18.9754L20.9866 15.7005V22.2995Z" fill="white"/>
</svg>
